<svg version="1.1" id="Layer_1" xmlns="http://www.w3.org/2000/svg" xmlns:xlink="http://www.w3.org/1999/xlink" x="0px" y="0px"
	 width="100%" viewBox="0 0 192 192" enable-background="new 0 0 192 192" xml:space="preserve">
<path fill="#0156AA" opacity="1.000000" stroke="none" 
	d="
M0.999998,184.000000 
	C1.000000,126.312439 1.000000,68.624878 1.322576,10.670254 
	C4.430101,7.268795 7.215051,4.134398 10.000000,1.000000 
	C67.354225,1.000000 124.708458,1.000000 182.323730,1.319109 
	C186.056534,4.758811 189.528259,7.879405 193.000000,10.999998 
	C193.000000,68.354225 193.000000,125.708458 192.691620,183.309265 
	C189.588837,186.703888 186.794434,189.851944 184.000000,193.000000 
	C126.312439,193.000000 68.624878,193.000000 10.670256,192.677429 
	C7.268796,189.569901 4.134396,186.784958 0.999998,184.000000 
M11.816835,120.445694 
	C11.816835,123.198608 11.816835,125.951523 11.816835,128.744049 
	C14.911116,128.744049 17.173288,128.744049 20.023722,128.744049 
	C20.023722,118.203247 19.996605,107.927071 20.033871,97.651123 
	C20.056301,91.466110 23.941545,87.782829 30.495625,87.606644 
	C36.950863,87.433121 40.769905,90.671814 40.944092,96.991470 
	C41.159653,104.811935 41.020638,112.642204 41.032257,120.468239 
	C41.036350,123.222336 41.032913,125.976440 41.032913,128.725830 
	C44.128773,128.725830 46.390011,128.725830 49.153828,128.725830 
	C49.153828,120.154228 49.097908,111.866783 49.184917,103.580841 
	C49.214375,100.775940 49.225945,97.878181 49.910267,95.192177 
	C51.320457,89.657104 56.106510,86.960670 62.295624,87.741592 
	C67.747658,88.429520 70.007561,91.044968 70.192169,97.336243 
	C70.348396,102.660301 70.250946,107.991943 70.257301,113.320236 
	C70.263397,118.431961 70.258614,123.543701 70.258614,128.805145 
	C73.260414,128.805145 75.547806,128.805145 78.408806,128.805145 
	C78.408806,118.975388 78.447868,109.351112 78.383408,99.727524 
	C78.365616,97.071259 78.275780,94.374527 77.807388,91.770393 
	C76.693001,85.574730 72.178810,81.682747 65.826660,80.835739 
	C58.562565,79.867126 52.491524,82.180351 47.635029,87.508133 
	C39.181278,78.827499 31.737104,78.311417 20.359659,85.427841 
	C19.550606,79.749146 15.739748,81.419441 11.816828,81.896111 
	C11.816828,94.550522 11.816828,107.003860 11.816835,120.445694 
M141.843857,99.839905 
	C141.843857,109.438347 141.843857,119.036781 141.843857,128.584442 
	C144.920273,128.584442 147.290237,128.584442 149.832870,128.584442 
	C149.832870,117.014702 150.195587,105.861351 149.724091,94.743378 
	C149.307892,84.929573 143.285126,79.766266 133.522751,80.868507 
	C129.646393,81.306168 126.013428,83.886696 122.263741,85.477715 
	C121.855637,85.650879 121.408257,85.731499 120.806664,85.904686 
	C120.395912,84.385948 120.024559,83.012863 119.691925,81.782951 
	C117.305191,81.782951 115.223755,81.782951 113.137619,81.782951 
	C113.137619,97.662857 113.137619,113.193092 113.137619,128.692078 
	C115.790482,128.692078 118.041801,128.692078 120.810654,128.692078 
	C120.810654,118.584755 120.708305,108.793457 120.889297,99.007401 
	C120.929840,96.815094 121.464447,94.314430 122.638298,92.523933 
	C125.445969,88.241356 131.111176,86.548950 135.928101,88.042595 
	C141.404831,89.740868 141.681061,94.311928 141.843857,99.839905 
M165.013214,109.477715 
	C165.021957,112.137009 164.961517,114.798645 165.051636,117.455177 
	C165.406616,127.918022 171.906281,132.227234 181.995941,128.657364 
	C181.995941,126.789757 181.995941,124.900780 181.995941,122.926201 
	C178.114655,122.762497 173.579971,123.752090 173.449722,118.260185 
	C173.214325,108.335495 173.383102,98.401215 173.383102,88.285271 
	C176.451309,88.015831 179.160736,87.777908 182.135437,87.516685 
	C182.038177,85.302315 181.961899,83.565590 181.878693,81.671570 
	C178.814316,81.441696 176.226883,81.247604 173.160889,81.017609 
	C173.160889,77.199867 173.160889,73.780907 173.160889,70.334503 
	C170.235611,70.334503 167.832397,70.334503 164.929779,70.334503 
	C164.929779,74.078545 164.929779,77.495201 164.929779,81.018013 
	C161.858398,81.298775 159.284164,81.534088 156.677856,81.772339 
	C156.677856,83.938835 156.677856,85.679794 156.677856,87.641624 
	C159.560349,87.852783 162.116516,88.040039 165.013214,88.252235 
	C165.013214,95.240067 165.013214,101.862320 165.013214,109.477715 
M92.847679,128.969482 
	C94.943703,128.969482 97.039734,128.969482 99.656296,128.969482 
	C99.656296,114.102402 99.571228,99.815598 99.719261,85.531219 
	C99.753975,82.181686 98.533569,81.318771 95.355804,81.265030 
	C91.809906,81.205055 91.267632,82.827446 91.295998,85.822762 
	C91.407936,97.642204 91.302917,109.463547 91.371338,121.283646 
	C91.385513,123.733948 91.797096,126.181953 92.847679,128.969482 
M96.926804,64.387650 
	C93.918900,63.873753 91.332497,64.774918 91.120430,67.962135 
	C91.009674,69.626701 92.446968,72.513367 93.739395,72.876801 
	C95.462799,73.361427 98.542999,72.544586 99.572472,71.179619 
	C101.282661,68.912102 100.625435,66.150467 96.926804,64.387650 
z"/>
<path fill="#000000" opacity="1.000000" stroke="none" 
	d="
M193.000000,10.513433 
	C189.528259,7.879405 186.056534,4.758811 182.792389,1.319109 
	C186.252457,1.000000 189.504913,1.000000 193.000000,1.000000 
	C193.000000,4.006597 193.000000,7.016734 193.000000,10.513433 
z"/>
<path fill="#000000" opacity="1.000000" stroke="none" 
	d="
M184.491058,193.000000 
	C186.794434,189.851944 189.588837,186.703888 192.691620,183.777924 
	C193.000000,186.917358 193.000000,189.834702 193.000000,193.000000 
	C190.330002,193.000000 187.656052,193.000000 184.491058,193.000000 
z"/>
<path fill="#000000" opacity="1.000000" stroke="none" 
	d="
M9.508951,1.000000 
	C7.215051,4.134398 4.430101,7.268795 1.322576,10.201596 
	C1.000000,7.082645 1.000000,4.165290 1.000000,1.000000 
	C3.670005,1.000000 6.343954,1.000000 9.508951,1.000000 
z"/>
<path fill="#000000" opacity="1.000000" stroke="none" 
	d="
M0.999998,184.491058 
	C4.134396,186.784958 7.268796,189.569901 10.201598,192.677429 
	C7.082646,193.000000 4.165292,193.000000 1.000000,193.000000 
	C1.000000,190.330002 1.000000,187.656052 0.999998,184.491058 
z"/>
<path fill="#A3F858" opacity="1.000000" stroke="none" 
	d="
M11.816832,119.951447 
	C11.816828,107.003860 11.816828,94.550522 11.816828,81.896111 
	C15.739748,81.419441 19.550606,79.749146 20.359659,85.427841 
	C31.737104,78.311417 39.181278,78.827499 47.635029,87.508133 
	C52.491524,82.180351 58.562565,79.867126 65.826660,80.835739 
	C72.178810,81.682747 76.693001,85.574730 77.807388,91.770393 
	C78.275780,94.374527 78.365616,97.071259 78.383408,99.727524 
	C78.447868,109.351112 78.408806,118.975388 78.408806,128.805145 
	C75.547806,128.805145 73.260414,128.805145 70.258614,128.805145 
	C70.258614,123.543701 70.263397,118.431961 70.257301,113.320236 
	C70.250946,107.991943 70.348396,102.660301 70.192169,97.336243 
	C70.007561,91.044968 67.747658,88.429520 62.295624,87.741592 
	C56.106510,86.960670 51.320457,89.657104 49.910267,95.192177 
	C49.225945,97.878181 49.214375,100.775940 49.184917,103.580841 
	C49.097908,111.866783 49.153828,120.154228 49.153828,128.725830 
	C46.390011,128.725830 44.128773,128.725830 41.032913,128.725830 
	C41.032913,125.976440 41.036350,123.222336 41.032257,120.468239 
	C41.020638,112.642204 41.159653,104.811935 40.944092,96.991470 
	C40.769905,90.671814 36.950863,87.433121 30.495625,87.606644 
	C23.941545,87.782829 20.056301,91.466110 20.033871,97.651123 
	C19.996605,107.927071 20.023722,118.203247 20.023722,128.744049 
	C17.173288,128.744049 14.911116,128.744049 11.816835,128.744049 
	C11.816835,125.951523 11.816835,123.198608 11.816832,119.951447 
z"/>
<path fill="#A4F958" opacity="1.000000" stroke="none" 
	d="
M141.843094,99.381927 
	C141.681061,94.311928 141.404831,89.740868 135.928101,88.042595 
	C131.111176,86.548950 125.445969,88.241356 122.638298,92.523933 
	C121.464447,94.314430 120.929840,96.815094 120.889297,99.007401 
	C120.708305,108.793457 120.810654,118.584755 120.810654,128.692078 
	C118.041801,128.692078 115.790482,128.692078 113.137619,128.692078 
	C113.137619,113.193092 113.137619,97.662857 113.137619,81.782951 
	C115.223755,81.782951 117.305191,81.782951 119.691925,81.782951 
	C120.024559,83.012863 120.395912,84.385948 120.806664,85.904686 
	C121.408257,85.731499 121.855637,85.650879 122.263741,85.477715 
	C126.013428,83.886696 129.646393,81.306168 133.522751,80.868507 
	C143.285126,79.766266 149.307892,84.929573 149.724091,94.743378 
	C150.195587,105.861351 149.832870,117.014702 149.832870,128.584442 
	C147.290237,128.584442 144.920273,128.584442 141.843857,128.584442 
	C141.843857,119.036781 141.843857,109.438347 141.843094,99.381927 
z"/>
<path fill="#A3F858" opacity="1.000000" stroke="none" 
	d="
M165.013214,108.981140 
	C165.013214,101.862320 165.013214,95.240067 165.013214,88.252235 
	C162.116516,88.040039 159.560349,87.852783 156.677856,87.641624 
	C156.677856,85.679794 156.677856,83.938835 156.677856,81.772339 
	C159.284164,81.534088 161.858398,81.298775 164.929779,81.018013 
	C164.929779,77.495201 164.929779,74.078545 164.929779,70.334503 
	C167.832397,70.334503 170.235611,70.334503 173.160889,70.334503 
	C173.160889,73.780907 173.160889,77.199867 173.160889,81.017609 
	C176.226883,81.247604 178.814316,81.441696 181.878693,81.671570 
	C181.961899,83.565590 182.038177,85.302315 182.135437,87.516685 
	C179.160736,87.777908 176.451309,88.015831 173.383102,88.285271 
	C173.383102,98.401215 173.214325,108.335495 173.449722,118.260185 
	C173.579971,123.752090 178.114655,122.762497 181.995941,122.926201 
	C181.995941,124.900780 181.995941,126.789757 181.995941,128.657364 
	C171.906281,132.227234 165.406616,127.918022 165.051636,117.455177 
	C164.961517,114.798645 165.021957,112.137009 165.013214,108.981140 
z"/>
<path fill="#97EC5E" opacity="1.000000" stroke="none" 
	d="
M92.436600,128.800247 
	C91.797096,126.181953 91.385513,123.733948 91.371338,121.283646 
	C91.302917,109.463547 91.407936,97.642204 91.295998,85.822762 
	C91.267632,82.827446 91.809906,81.205055 95.355804,81.265030 
	C98.533569,81.318771 99.753975,82.181686 99.719261,85.531219 
	C99.571228,99.815598 99.656296,114.102402 99.656296,128.969482 
	C97.039734,128.969482 94.943703,128.969482 92.436600,128.800247 
z"/>
<path fill="#A1F65A" opacity="1.000000" stroke="none" 
	d="
M97.270157,64.533234 
	C100.625435,66.150467 101.282661,68.912102 99.572472,71.179619 
	C98.542999,72.544586 95.462799,73.361427 93.739395,72.876801 
	C92.446968,72.513367 91.009674,69.626701 91.120430,67.962135 
	C91.332497,64.774918 93.918900,63.873753 97.270157,64.533234 
z"/>
</svg>